<svg width="30" height="25" viewBox="0 0 30 25" fill="none" xmlns="http://www.w3.org/2000/svg">
<g clip-path="url(#clip0_130_4806)">
<path d="M12.4673 4.45117L3.06104 19.6168C3.47645 19.7087 3.87181 19.8663 4.22987 20.0826L13.5249 5.17581C13.1173 5.01283 12.7555 4.7649 12.4673 4.45117ZM17.5879 4.45117C17.3229 4.72459 17.024 4.96783 16.6974 5.17581L25.7698 20.0826C26.1327 19.8749 26.5265 19.7179 26.9386 19.6168L17.5879 4.45117ZM24.2113 22.2566H5.56567C5.63937 22.6678 5.63937 23.0875 5.56567 23.4988H24.2113C24.1376 23.0875 24.1376 22.6678 24.2113 22.2566Z" fill="#2B2B2B"/>
<path d="M27.7737 25.0002C29.034 25.0002 30.0557 24.05 30.0557 22.878C30.0557 21.706 29.034 20.7559 27.7737 20.7559C26.5134 20.7559 25.4917 21.706 25.4917 22.878C25.4917 24.05 26.5134 25.0002 27.7737 25.0002Z" fill="#2B2B2B"/>
<path d="M2.282 25.0002C3.54232 25.0002 4.56401 24.05 4.56401 22.878C4.56401 21.706 3.54232 20.7559 2.282 20.7559C1.02169 20.7559 0 21.706 0 22.878C0 24.05 1.02169 25.0002 2.282 25.0002Z" fill="#2B2B2B"/>
<path d="M15.0276 4.24431C16.2879 4.24431 17.3096 3.29419 17.3096 2.12215C17.3096 0.95012 16.2879 0 15.0276 0C13.7673 0 12.7456 0.95012 12.7456 2.12215C12.7456 3.29419 13.7673 4.24431 15.0276 4.24431Z" fill="#2B2B2B"/>
</g>
<defs>
<clipPath id="clip0_130_4806">
<rect width="30" height="25" fill="white"/>
</clipPath>
</defs>
</svg>
