<svg width="135" height="25" viewBox="0 0 135 25" fill="none" xmlns="http://www.w3.org/2000/svg">
<g clip-path="url(#clip0_204_3211)">
<path d="M23.6592 22.7568C23.6567 22.8376 23.6567 22.9183 23.6592 22.999H6.11816C6.12061 22.9183 6.1206 22.8376 6.11816 22.7568H23.6592ZM26.1787 19.335C26.1041 19.3642 26.031 19.397 25.958 19.4297L17.3662 5.31348C17.404 5.2844 17.4426 5.25657 17.4795 5.22656L26.1787 19.335ZM12.5801 5.2168C12.6552 5.27195 12.7319 5.32507 12.8115 5.37402L4.0498 19.4258C3.97624 19.3922 3.9026 19.3586 3.82715 19.3291L12.5801 5.2168Z" fill="#DADADA" stroke="#DADADA"/>
<path d="M27.7734 21.2559C28.7923 21.256 29.5556 22.0157 29.5557 22.8779C29.5557 23.7402 28.7923 24.4999 27.7734 24.5C26.7544 24.5 25.9912 23.7402 25.9912 22.8779C25.9913 22.0156 26.7545 21.2559 27.7734 21.2559Z" fill="#DADADA" stroke="#DADADA"/>
<path d="M2.28223 21.2559C3.30107 21.256 4.0644 22.0157 4.06445 22.8779C4.06445 23.7402 3.30111 24.4999 2.28223 24.5C1.26324 24.5 0.5 23.7402 0.5 22.8779C0.500049 22.0156 1.26327 21.2559 2.28223 21.2559Z" fill="#DADADA" stroke="#DADADA"/>
<path d="M15.0283 0.5C16.0472 0.50011 16.8105 1.25985 16.8105 2.12207C16.8105 2.98432 16.0472 3.74403 15.0283 3.74414C14.0093 3.74414 13.2461 2.98438 13.2461 2.12207C13.2461 1.25979 14.0094 0.5 15.0283 0.5Z" fill="#DADADA" stroke="#DADADA"/>
</g>
<path d="M41.14 19.74C38.62 19.74 36.24 18.84 35.14 18.1L36.1 16.92C37.42 17.82 39.28 18.26 41.16 18.26C43.38 18.26 44.98 17.46 44.98 15.92C44.98 14.16 42.88 13.94 41 13.62C36.66 12.92 35.54 11.92 35.54 10.02C35.54 6.86 38.7 5.96 41.4 5.96C43.28 5.96 45.18 6.56 46.6 7.36L45.6 8.52C44.22 7.78 42.9 7.44 41.36 7.44C38.7 7.44 37.32 8.36 37.32 9.9C37.32 11.16 38.26 11.72 41.32 12.16C43.24 12.46 46.78 12.94 46.78 15.88C46.78 18.18 44.6 19.74 41.14 19.74ZM52.0206 13.32L52.0006 19.52H50.3006V6.22H56.8406C59.6006 6.22 61.2806 7.66 61.2806 9.74C61.2806 11.8 59.6006 13.32 56.8406 13.32H52.0206ZM52.0206 11.84H56.8406C58.5606 11.84 59.5006 11 59.5006 9.72C59.5006 8.42 58.5606 7.66 56.8406 7.66H52.0206V11.84ZM75.698 19.5H73.498L68.958 13.32H66.298L66.278 19.52H64.578V6.22H71.118C73.878 6.22 75.558 7.66 75.558 9.74C75.558 11.8 73.878 13.32 71.118 13.32H70.938L75.698 19.5ZM66.298 7.66V11.84H71.118C72.838 11.84 73.778 11 73.778 9.72C73.778 8.42 72.838 7.66 71.118 7.66H66.298ZM84.487 14.08V19.5H82.787V14.08L76.907 6.2H79.047L83.627 12.58L88.207 6.2H90.347L84.487 14.08ZM104.891 6.2V19.5H103.331L94.9113 8.98V19.5H93.1913V6.2H94.7713L103.171 16.7V6.2H104.891ZM119.586 7.66H114.526V19.5H112.806V7.66H107.766V6.2H119.586V7.66ZM133.55 19.5H131.35L126.81 13.32H124.15L124.13 19.52H122.43V6.22H128.97C131.73 6.22 133.41 7.66 133.41 9.74C133.41 11.8 131.73 13.32 128.97 13.32H128.79L133.55 19.5ZM124.15 7.66V11.84H128.97C130.69 11.84 131.63 11 131.63 9.72C131.63 8.42 130.69 7.66 128.97 7.66H124.15Z" fill="#DADADA"/>
<defs>
<clipPath id="clip0_204_3211">
<rect width="30" height="25" fill="white"/>
</clipPath>
</defs>
</svg>
