<svg width="49" height="49" viewBox="0 0 49 49" fill="none" xmlns="http://www.w3.org/2000/svg">
<path d="M19.4767 4.90528C20.1333 4.90528 20.7835 5.03461 21.3901 5.28588C21.9968 5.53715 22.548 5.90545 23.0123 6.36974C23.4766 6.83404 23.8449 7.38523 24.0961 7.99186C24.3474 8.59849 24.4767 9.24867 24.4767 9.90528V39.9053C24.474 41.153 24.0049 42.3547 23.1615 43.2742C22.3181 44.1937 21.1614 44.7647 19.9186 44.8749C18.6757 44.9852 17.4365 44.6268 16.4444 43.8701C15.4523 43.1134 14.779 42.0131 14.5567 40.7853C13.719 40.9718 12.8473 40.9395 12.0256 40.6915C11.2039 40.4435 10.4599 39.9882 9.86518 39.3694C9.27046 38.7505 8.84505 37.989 8.6299 37.1581C8.41474 36.3273 8.4171 35.455 8.63673 34.6253C7.48642 34.2558 6.47446 33.5476 5.73329 32.5935C4.99212 31.6393 4.55627 30.4836 4.48279 29.2777C4.40931 28.0717 4.70162 26.8717 5.32146 25.8346C5.9413 24.7975 6.85979 23.9717 7.95673 23.4653C7.30453 22.821 6.84203 22.0097 6.6198 21.1203C6.39758 20.2308 6.42417 19.2974 6.69669 18.4221C6.9692 17.5467 7.47714 16.7631 8.16498 16.157C8.85281 15.5509 9.69405 15.1455 10.5967 14.9853C10.4511 14.3305 10.4387 13.6531 10.5603 12.9935C10.6819 12.3338 10.9349 11.7054 11.3044 11.1456C11.6739 10.5857 12.1523 10.106 12.711 9.73484C13.2697 9.36371 13.8974 9.1088 14.5567 8.98528C14.7715 7.83781 15.3811 6.80168 16.2797 6.05648C17.1783 5.31129 18.3093 4.90402 19.4767 4.90528Z" stroke="#555555" stroke-width="4" stroke-linecap="round" stroke-linejoin="round"/>
<path d="M29.4766 4.90528C28.1505 4.90528 26.8787 5.43206 25.941 6.36974C25.0033 7.30742 24.4766 8.57919 24.4766 9.90528V39.9053C24.4793 41.153 24.9484 42.3547 25.7918 43.2742C26.6352 44.1937 27.7919 44.7647 29.0347 44.8749C30.2776 44.9852 31.5168 44.6268 32.5089 43.8701C33.501 43.1134 34.1743 42.0131 34.3966 40.7853C35.2343 40.9718 36.106 40.9395 36.9277 40.6915C37.7494 40.4435 38.4934 39.9882 39.0881 39.3694C39.6828 38.7505 40.1082 37.989 40.3234 37.1581C40.5385 36.3273 40.5362 35.455 40.3166 34.6253C41.4669 34.2558 42.4788 33.5476 43.22 32.5935C43.9612 31.6393 44.397 30.4836 44.4705 29.2777C44.544 28.0717 44.2517 26.8717 43.6318 25.8346C43.012 24.7975 42.0935 23.9717 40.9966 23.4653C41.6488 22.821 42.1113 22.0097 42.3335 21.1203C42.5557 20.2308 42.5291 19.2974 42.2566 18.4221C41.9841 17.5467 41.4761 16.7631 40.7883 16.157C40.1005 15.5509 39.2592 15.1455 38.3566 14.9853C38.5022 14.3305 38.5146 13.6531 38.393 12.9935C38.2714 12.3338 38.0184 11.7054 37.6489 11.1456C37.2794 10.5857 36.801 10.106 36.2423 9.73484C35.6836 9.36371 35.0559 9.1088 34.3966 8.98528C34.1818 7.83781 33.5722 6.80168 32.6736 6.05648C31.775 5.31129 30.644 4.90402 29.4766 4.90528Z" stroke="#555555" stroke-width="4" stroke-linecap="round" stroke-linejoin="round"/>
</svg>
