<svg width="9" height="8" viewBox="0 0 9 8" fill="none" xmlns="http://www.w3.org/2000/svg">
<mask id="path-1-inside-1_1111_796" fill="white">
<path d="M3.73986 1.4248L0.917969 6.27781C1.04259 6.30722 1.1612 6.35764 1.26862 6.42688L4.05712 1.65669C3.93485 1.60454 3.8263 1.5252 3.73986 1.4248ZM5.27604 1.4248C5.19653 1.5123 5.10686 1.59014 5.00888 1.65669L7.73059 6.42688C7.83946 6.36038 7.95761 6.31015 8.08123 6.27781L5.27604 1.4248ZM7.26305 7.12253H1.66936C1.69147 7.25413 1.69147 7.38845 1.66936 7.52004H7.26305C7.24094 7.38845 7.24094 7.25413 7.26305 7.12253Z"/>
</mask>
<path d="M3.73986 1.4248L0.917969 6.27781C1.04259 6.30722 1.1612 6.35764 1.26862 6.42688L4.05712 1.65669C3.93485 1.60454 3.8263 1.5252 3.73986 1.4248ZM5.27604 1.4248C5.19653 1.5123 5.10686 1.59014 5.00888 1.65669L7.73059 6.42688C7.83946 6.36038 7.95761 6.31015 8.08123 6.27781L5.27604 1.4248ZM7.26305 7.12253H1.66936C1.69147 7.25413 1.69147 7.38845 1.66936 7.52004H7.26305C7.24094 7.38845 7.24094 7.25413 7.26305 7.12253Z" fill="#FAFAFA"/>
<path d="M3.73986 1.4248L4.49768 0.772335L3.58134 -0.291949L2.87538 0.922134L3.73986 1.4248ZM0.917969 6.27781L0.053491 5.77514L-0.624582 6.94126L0.688299 7.25108L0.917969 6.27781ZM1.26862 6.42688L0.726846 7.2674L1.6048 7.8333L2.13193 6.93154L1.26862 6.42688ZM4.05712 1.65669L4.92043 2.16135L5.49295 1.18196L4.44946 0.736869L4.05712 1.65669ZM5.27604 1.4248L6.14181 0.924362L5.45667 -0.260934L4.53595 0.752292L5.27604 1.4248ZM5.00888 1.65669L4.44698 0.829482L3.68204 1.34908L4.14031 2.15226L5.00888 1.65669ZM7.73059 6.42688L6.86202 6.92245L7.37258 7.81727L8.2518 7.2803L7.73059 6.42688ZM8.08123 6.27781L8.33437 7.24524L9.60353 6.91315L8.947 5.77736L8.08123 6.27781ZM7.26305 7.12253L8.24923 7.28821L8.44507 6.12253H7.26305V7.12253ZM1.66936 7.12253V6.12253H0.487343L0.683181 7.28821L1.66936 7.12253ZM1.66936 7.52004L0.683181 7.35436L0.487343 8.52004H1.66936V7.52004ZM7.26305 7.52004V8.52004H8.44507L8.24923 7.35436L7.26305 7.52004ZM3.73986 1.4248L2.87538 0.922134L0.053491 5.77514L0.917969 6.27781L1.78245 6.78048L4.60434 1.92748L3.73986 1.4248ZM0.917969 6.27781L0.688299 7.25108C0.702311 7.25438 0.715336 7.25998 0.726846 7.2674L1.26862 6.42688L1.81039 5.58635C1.60707 5.45529 1.38288 5.36005 1.14764 5.30454L0.917969 6.27781ZM1.26862 6.42688L2.13193 6.93154L4.92043 2.16135L4.05712 1.65669L3.1938 1.15202L0.405303 5.92221L1.26862 6.42688ZM4.05712 1.65669L4.44946 0.736869C4.46735 0.744502 4.48398 0.756428 4.49768 0.772335L3.73986 1.4248L2.98205 2.07727C3.16862 2.29397 3.40234 2.46457 3.66477 2.57651L4.05712 1.65669ZM5.27604 1.4248L4.53595 0.752292C4.50963 0.781258 4.47979 0.807196 4.44698 0.829482L5.00888 1.65669L5.57078 2.4839C5.73392 2.37308 5.88344 2.24334 6.01613 2.09732L5.27604 1.4248ZM5.00888 1.65669L4.14031 2.15226L6.86202 6.92245L7.73059 6.42688L8.59915 5.9313L5.87744 1.16111L5.00888 1.65669ZM7.73059 6.42688L8.2518 7.2803C8.27722 7.26478 8.30503 7.25292 8.33437 7.24524L8.08123 6.27781L7.8281 5.31038C7.61019 5.36739 7.4017 5.45599 7.20937 5.57345L7.73059 6.42688ZM8.08123 6.27781L8.947 5.77736L6.14181 0.924362L5.27604 1.4248L4.41027 1.92525L7.21547 6.77825L8.08123 6.27781ZM7.26305 7.12253V6.12253H1.66936V7.12253V8.12253H7.26305V7.12253ZM1.66936 7.12253L0.683181 7.28821C0.686862 7.31012 0.686862 7.33245 0.683181 7.35436L1.66936 7.52004L2.65554 7.68572C2.69608 7.44444 2.69608 7.19813 2.65554 6.95685L1.66936 7.12253ZM1.66936 7.52004V8.52004H7.26305V7.52004V6.52004H1.66936V7.52004ZM7.26305 7.52004L8.24923 7.35436C8.24555 7.33245 8.24555 7.31012 8.24923 7.28821L7.26305 7.12253L6.27687 6.95685C6.23634 7.19813 6.23634 7.44444 6.27687 7.68572L7.26305 7.52004Z" fill="#FAFAFA" mask="url(#path-1-inside-1_1111_796)"/>
<path d="M8.33203 7.1416C8.43766 7.1416 8.51639 7.22536 8.5166 7.32031C8.5166 7.41542 8.4378 7.5 8.33203 7.5C8.22628 7.49998 8.14746 7.41541 8.14746 7.32031C8.14767 7.22537 8.22642 7.14162 8.33203 7.1416Z" fill="#FAFAFA" stroke="#FAFAFA"/>
<path d="M0.68457 7.1416C0.790201 7.1416 0.868932 7.22536 0.869141 7.32031C0.869141 7.41542 0.790341 7.5 0.68457 7.5C0.578815 7.49998 0.5 7.41541 0.5 7.32031C0.500208 7.22537 0.578955 7.14162 0.68457 7.1416Z" fill="#FAFAFA" stroke="#FAFAFA"/>
<path d="M4.50879 0.5C4.61442 0.5 4.69315 0.583761 4.69336 0.678711C4.69336 0.773816 4.61456 0.858398 4.50879 0.858398C4.40303 0.858382 4.32422 0.773807 4.32422 0.678711C4.32443 0.583771 4.40317 0.500016 4.50879 0.5Z" fill="#FAFAFA" stroke="#FAFAFA"/>
</svg>
