<svg width="30" height="38" viewBox="0 0 30 38" fill="none" xmlns="http://www.w3.org/2000/svg">
<g clip-path="url(#clip0_558_1086)">
<path d="M12.4395 10.9512L3.0332 26.1168C3.44862 26.2087 3.84398 26.3663 4.20203 26.5826L13.497 11.6758C13.0895 11.5128 12.7276 11.2649 12.4395 10.9512ZM17.5601 10.9512C17.2951 11.2246 16.9962 11.4678 16.6696 11.6758L25.7419 26.5826C26.1048 26.3749 26.4987 26.2179 26.9108 26.1168L17.5601 10.9512ZM24.1835 28.7566H5.53784C5.61154 29.1678 5.61154 29.5875 5.53784 29.9988H24.1835C24.1098 29.5875 24.1098 29.1678 24.1835 28.7566Z" fill="#2B2B2B"/>
<path d="M27.7449 31.5002C29.0052 31.5002 30.0269 30.55 30.0269 29.378C30.0269 28.206 29.0052 27.2559 27.7449 27.2559C26.4846 27.2559 25.4629 28.206 25.4629 29.378C25.4629 30.55 26.4846 31.5002 27.7449 31.5002Z" fill="#2B2B2B"/>
<path d="M2.25368 31.5002C3.514 31.5002 4.53569 30.55 4.53569 29.378C4.53569 28.206 3.514 27.2559 2.25368 27.2559C0.993368 27.2559 -0.0283203 28.206 -0.0283203 29.378C-0.0283203 30.55 0.993368 31.5002 2.25368 31.5002Z" fill="#2B2B2B"/>
<path d="M14.9998 10.7443C16.2601 10.7443 17.2818 9.79419 17.2818 8.62215C17.2818 7.45012 16.2601 6.5 14.9998 6.5C13.7395 6.5 12.7178 7.45012 12.7178 8.62215C12.7178 9.79419 13.7395 10.7443 14.9998 10.7443Z" fill="#2B2B2B"/>
</g>
<defs>
<clipPath id="clip0_558_1086">
<rect width="30" height="38" fill="white"/>
</clipPath>
</defs>
</svg>
